<svg width="88" height="88" viewBox="0 0 88 88" fill="none" xmlns="http://www.w3.org/2000/svg">
<rect width="88" height="88" fill="#57EB9F"/>
<path d="M61.0476 15.8111H15.8111V61.0476H61.0476V15.8111Z" fill="#57EB9F"/>
<path d="M61.0476 15.8111V61.0476H15.8111L26.9491 72.189H72.189V26.9491L61.0476 15.8111Z" fill="#1A1C1C"/>
<path d="M53.068 46.677C53.0257 46.2111 52.8372 45.8489 52.5026 45.5906C52.1722 45.3279 51.6999 45.1966 51.0857 45.1966C50.6791 45.1966 50.3402 45.2496 50.0691 45.3555C49.7981 45.4614 49.5947 45.6075 49.4592 45.7939C49.3237 45.976 49.2538 46.1857 49.2495 46.4229C49.2411 46.6177 49.2792 46.7893 49.3639 46.9375C49.4528 47.0858 49.5799 47.2171 49.7451 47.3314C49.9145 47.4416 50.1178 47.539 50.355 47.6237C50.5922 47.7084 50.8591 47.7825 51.1556 47.8461L52.2738 48.1002C52.9177 48.24 53.4852 48.4264 53.9766 48.6593C54.4722 48.8923 54.8873 49.1697 55.2219 49.4916C55.5607 49.8136 55.817 50.1842 55.9907 50.6035C56.1643 51.0228 56.2533 51.493 56.2575 52.014C56.2533 52.8357 56.0457 53.541 55.6349 54.1297C55.224 54.7185 54.6331 55.1696 53.8622 55.483C53.0955 55.7965 52.17 55.9532 51.0857 55.9532C49.9971 55.9532 49.0483 55.7901 48.2393 55.464C47.4303 55.1378 46.8013 54.6423 46.3523 53.9773C45.9033 53.3122 45.6725 52.4715 45.6598 51.4549H48.6714C48.6968 51.8742 48.809 52.2237 49.0081 52.5032C49.2072 52.7828 49.4804 52.9946 49.8277 53.1386C50.1793 53.2826 50.5859 53.3546 51.0476 53.3546C51.4712 53.3546 51.8312 53.2974 52.1277 53.1831C52.4284 53.0687 52.6593 52.9099 52.8202 52.7065C52.9812 52.5032 53.0638 52.2703 53.068 52.0077C53.0638 51.762 52.9875 51.5523 52.8393 51.3786C52.691 51.2007 52.4623 51.0483 52.1531 50.9212C51.8481 50.7899 51.4584 50.6692 50.984 50.559L49.6244 50.2414C48.4977 49.983 47.6103 49.5658 46.9622 48.9897C46.3142 48.4094 45.9923 47.6258 45.9965 46.6389C45.9923 45.8341 46.2083 45.1289 46.6446 44.5232C47.0808 43.9174 47.6844 43.4452 48.4553 43.1063C49.2262 42.7675 50.1051 42.598 51.0921 42.598C52.1002 42.598 52.9748 42.7696 53.7161 43.1127C54.4616 43.4515 55.0397 43.928 55.4506 44.5422C55.8615 45.1564 56.0711 45.868 56.0796 46.677H53.068Z" fill="black"/>
<path d="M40.9597 42.7759H44.0602V51.7726C44.056 52.6155 43.8548 53.3525 43.4567 53.9836C43.0585 54.6105 42.5079 55.0976 41.8047 55.4449C41.1058 55.7923 40.2968 55.9659 39.3777 55.9659C38.5644 55.9659 37.8253 55.824 37.1603 55.5402C36.4995 55.2564 35.9722 54.8159 35.5782 54.2187C35.1886 53.6215 34.9958 52.8569 35.0001 51.9251H38.1324C38.1451 52.2597 38.2086 52.5456 38.323 52.7828C38.4416 53.0158 38.6047 53.1915 38.8122 53.3101C39.0198 53.4287 39.2675 53.488 39.5556 53.488C39.8563 53.488 40.1105 53.4245 40.318 53.2974C40.5256 53.1661 40.6823 52.9734 40.7882 52.7193C40.8983 52.4651 40.9555 52.1495 40.9597 51.7726V42.7759Z" fill="black"/>
</svg>
