<?xml version="1.0" encoding="utf-8"?>
<!-- Generator: Adobe Illustrator 24.3.0, SVG Export Plug-In . SVG Version: 6.00 Build 0)  -->
<svg version="1.1" id="Layer_1" xmlns="http://www.w3.org/2000/svg" xmlns:xlink="http://www.w3.org/1999/xlink" x="0px" y="0px"
	 viewBox="0 0 539.7 111.4" style="enable-background:new 0 0 539.7 111.4;" xml:space="preserve">
<style type="text/css">
	.st0{fill-rule:evenodd;clip-rule:evenodd;}
	.st1{fill:#3178C6;}
	.st2{fill-rule:evenodd;clip-rule:evenodd;fill:#FFFFFF;}
	.st3{fill:#F7DF1E;}
</style>
<g>
	<g>
		<path class="st0" d="M74.5,14L49.7,0L0,27.9v55.6l49.7,27.9l49.7-27.9V27.9L74.5,14L74.5,14z M70.7,20.8l20.8,11.7v46.5
			l-41.8,23.5L7.9,78.9V32.5L49.7,9L70.7,20.8z"/>
		<path class="st0" d="M62.2,46.4L69,37V27H30.5v10.4h25.3l-6.5,9H62.2z M53.7,58.2l3.7-5.2H44.5l-3.7,5.2H53.7z M29,74.4v10h41.5
			V74.1H42.1l6.7-9.3H36L29,74.4z"/>
	</g>
	<g>
		<path d="M159,40h7.4v9.4h9.4v7.2h-9.4V66H159v-9.4h-9.4v-7.2h9.4V40z"/>
	</g>
	<g>
		<path class="st1" d="M439.9,0.6h89.1c6,0,10.8,4.8,10.8,10.8v89.1c0,6-4.8,10.8-10.8,10.8h-89.1c-6,0-10.8-4.8-10.8-10.8V11.4
			C429,5.5,433.9,0.6,439.9,0.6z"/>
		<path class="st2" d="M497.6,88.6v10.8c1.8,0.9,3.9,1.6,6.3,2c2.4,0.5,5,0.7,7.6,0.7c2.6,0,5-0.2,7.4-0.7c2.4-0.5,4.3-1.3,6.1-2.4
			c1.8-1.1,3.2-2.6,4.1-4.5c0.9-1.9,1.5-4.1,1.5-6.9c0-2-0.3-3.7-0.9-5.2c-0.6-1.5-1.4-2.8-2.6-3.9c-1.1-1.1-2.4-2.2-3.9-3
			c-1.5-0.9-3.2-1.8-5.2-2.6c-1.4-0.6-2.6-1.1-3.9-1.7c-1.1-0.6-2.1-1.1-2.8-1.7c-0.8-0.6-1.4-1.2-1.8-1.8c-0.4-0.6-0.6-1.4-0.6-2.2
			c0-0.7,0.2-1.4,0.6-2s0.9-1.1,1.6-1.5c0.7-0.4,1.6-0.8,2.6-1c1-0.2,2.1-0.3,3.5-0.3c0.9,0,1.9,0.1,2.8,0.2c1,0.1,2,0.3,3,0.6
			c1,0.3,2,0.6,3,1.1c1,0.4,1.8,0.9,2.6,1.5V53.8c-1.6-0.6-3.5-1.1-5.4-1.4s-4.1-0.5-6.7-0.5s-5,0.3-7.4,0.8
			c-2.4,0.5-4.3,1.4-6.1,2.6c-1.8,1.2-3,2.6-4.1,4.5c-1,1.8-1.5,3.9-1.5,6.5c0,3.2,0.9,6.1,2.8,8.2c1.9,2.4,4.8,4.1,8.4,5.8
			c1.5,0.6,2.8,1.2,4.1,1.8c1.3,0.6,2.4,1.2,3.2,1.8c0.9,0.6,1.7,1.3,2.2,2.1c0.5,0.7,0.8,1.6,0.8,2.6c0,0.7-0.2,1.3-0.5,1.9
			c-0.3,0.6-0.8,1.1-1.5,1.6c-0.7,0.4-1.5,0.8-2.6,1c-1,0.2-2.2,0.4-3.7,0.4c-2.4,0-4.8-0.4-6.9-1.2c-2.4-0.8-4.5-2.1-6.5-3.7
			L497.6,88.6z M479.4,62h13.8v-8.9h-38.7V62h13.8v39.6h11V62z"/>
	</g>
	<g>
		<rect x="214.5" y="0.5" class="st3" width="110.9" height="110.9"/>
		<path d="M289,87.2c2.2,3.6,5.1,6.3,10.3,6.3c4.3,0,7.1-2.2,7.1-5.1c0-3.6-2.8-4.8-7.6-6.9l-2.6-1.1c-7.5-3.2-12.5-7.2-12.5-15.7
			c0-7.8,6-13.8,15.3-13.8c6.6,0,11.4,2.3,14.8,8.3l-8.1,5.2c-1.8-3.2-3.7-4.5-6.7-4.5c-3.1,0-5,1.9-5,4.5c0,3.1,1.9,4.4,6.4,6.3
			l2.6,1.1c8.9,3.8,13.8,7.7,13.8,16.4c0,9.4-7.4,14.5-17.3,14.5c-9.7,0-15.9-4.6-19-10.7L289,87.2z M252.2,88.1
			c1.6,2.9,3.1,5.4,6.7,5.4c3.4,0,5.6-1.3,5.6-6.5V51.4h10.4V87c0,10.8-6.3,15.7-15.6,15.7c-8.3,0-13.2-4.3-15.6-9.5L252.2,88.1z"/>
	</g>
	<g>
		<path d="M373.5,40h7.4v9.4h9.4v7.2h-9.4V66h-7.4v-9.4h-9.4v-7.2h9.4V40z"/>
	</g>
</g>
</svg>
