<?xml version="1.0" encoding="utf-8"?>
<!-- Generator: Adobe Illustrator 24.3.0, SVG Export Plug-In . SVG Version: 6.00 Build 0)  -->
<svg version="1.1" id="Layer_1" xmlns="http://www.w3.org/2000/svg" xmlns:xlink="http://www.w3.org/1999/xlink" x="0px" y="0px"
	 viewBox="0 0 539.7 111.4" style="enable-background:new 0 0 539.7 111.4;" xml:space="preserve">
<style type="text/css">
	.st0{fill:#3178C6;}
	.st1{fill-rule:evenodd;clip-rule:evenodd;fill:#FFFFFF;}
	.st2{fill:#F7DF1E;}
	.st3{clip-path:url(#SVGID_3_);}
	.st4{fill:#0A2463;}
</style>
<g>
	<path d="M159,40h7.4v9.4h9.4v7.2h-9.4V66H159v-9.4h-9.4v-7.2h9.4V40z"/>
</g>
<g>
	<path class="st0" d="M439.9,0.6H529c6,0,10.8,4.8,10.8,10.8v89.1c0,6-4.8,10.8-10.8,10.8h-89.1c-6,0-10.8-4.8-10.8-10.8V11.4
		C429,5.5,433.9,0.6,439.9,0.6z"/>
	<path class="st1" d="M497.6,88.6v10.8c1.8,0.9,3.9,1.6,6.3,2c2.4,0.5,5,0.7,7.6,0.7c2.6,0,5-0.2,7.4-0.7s4.3-1.3,6.1-2.4
		s3.2-2.6,4.1-4.5c0.9-1.9,1.5-4.1,1.5-6.9c0-2-0.3-3.7-0.9-5.2c-0.6-1.5-1.4-2.8-2.6-3.9c-1.1-1.1-2.4-2.2-3.9-3
		c-1.5-0.9-3.2-1.8-5.2-2.6c-1.4-0.6-2.6-1.1-3.9-1.7c-1.1-0.6-2.1-1.1-2.8-1.7c-0.8-0.6-1.4-1.2-1.8-1.8c-0.4-0.6-0.6-1.4-0.6-2.2
		c0-0.7,0.2-1.4,0.6-2s0.9-1.1,1.6-1.5s1.6-0.8,2.6-1s2.1-0.3,3.5-0.3c0.9,0,1.9,0.1,2.8,0.2c1,0.1,2,0.3,3,0.6s2,0.6,3,1.1
		c1,0.4,1.8,0.9,2.6,1.5V53.8c-1.6-0.6-3.5-1.1-5.4-1.4s-4.1-0.5-6.7-0.5s-5,0.3-7.4,0.8s-4.3,1.4-6.1,2.6c-1.8,1.2-3,2.6-4.1,4.5
		c-1,1.8-1.5,3.9-1.5,6.5c0,3.2,0.9,6.1,2.8,8.2c1.9,2.4,4.8,4.1,8.4,5.8c1.5,0.6,2.8,1.2,4.1,1.8c1.3,0.6,2.4,1.2,3.2,1.8
		c0.9,0.6,1.7,1.3,2.2,2.1c0.5,0.7,0.8,1.6,0.8,2.6c0,0.7-0.2,1.3-0.5,1.9s-0.8,1.1-1.5,1.6c-0.7,0.4-1.5,0.8-2.6,1
		c-1,0.2-2.2,0.4-3.7,0.4c-2.4,0-4.8-0.4-6.9-1.2c-2.4-0.8-4.5-2.1-6.5-3.7L497.6,88.6z M479.4,62h13.8v-8.9h-38.7V62h13.8v39.6h11
		V62H479.4z"/>
</g>
<g>
	<rect x="214.5" y="0.5" class="st2" width="110.9" height="110.9"/>
	<path d="M289,87.2c2.2,3.6,5.1,6.3,10.3,6.3c4.3,0,7.1-2.2,7.1-5.1c0-3.6-2.8-4.8-7.6-6.9l-2.6-1.1c-7.5-3.2-12.5-7.2-12.5-15.7
		c0-7.8,6-13.8,15.3-13.8c6.6,0,11.4,2.3,14.8,8.3l-8.1,5.2c-1.8-3.2-3.7-4.5-6.7-4.5c-3.1,0-5,1.9-5,4.5c0,3.1,1.9,4.4,6.4,6.3
		l2.6,1.1c8.9,3.8,13.8,7.7,13.8,16.4c0,9.4-7.4,14.5-17.3,14.5c-9.7,0-15.9-4.6-19-10.7L289,87.2z M252.2,88.1
		c1.6,2.9,3.1,5.4,6.7,5.4c3.4,0,5.6-1.3,5.6-6.5V51.4h10.4V87c0,10.8-6.3,15.7-15.6,15.7c-8.3,0-13.2-4.3-15.6-9.5L252.2,88.1z"/>
</g>
<g>
	<path d="M373.5,40h7.4v9.4h9.4v7.2h-9.4V66h-7.4v-9.4h-9.4v-7.2h9.4V40z"/>
</g>
<g>
	<defs>
		<polygon id="SVGID_1_" points="11.1,26.1 11.2,26.1 11.1,26.1 		"/>
	</defs>
	<defs>
		<polygon id="SVGID_2_" points="11,26 11,26 11,26 		"/>
	</defs>
	<clipPath id="SVGID_3_">
		<use xlink:href="#SVGID_1_"  style="overflow:visible;"/>
	</clipPath>
	<clipPath id="SVGID_4_" class="st3">
		<use xlink:href="#SVGID_2_"  style="overflow:visible;"/>
	</clipPath>
</g>
<g transform="translate(59.62999725341797,0)">
	<g>
		<path class="st4" d="M16.8,111.3h-46.6c-1.4,0-2.7,0-3.5-1.6c-0.8-1.6-0.2-2.6,0.5-3.8c7.3-12.6,14.6-25.1,21.8-37.7
			c0.9-1.8,2.6-3.1,4.7-3.3c3.9-0.6,6.9-4,6.9-8c-0.1-4-2.9-7.5-6.9-8.3c-3.6-0.8-7.6,1.5-9.2,5c-1.1,2.2-1,4.7,0.2,6.8
			c0.8,1.4,0.8,3.2-0.2,4.6c-3,5.1-5.9,10.3-8.9,15.4c-5.2,9.1-10.5,18.2-15.6,27.2c-1.4,2.4-3,3.9-6.1,3.7c-3.3-0.2-6.6-0.2-10,0
			c-1.4,0.1-2.6-0.7-3.1-2c-0.7-1.2-0.2-2.2,0.5-3.3c3.6-6,7.1-12,10.5-18c3.8-6.6,7.6-13.2,11.4-19.8l18.9-32.8
			c2-3.5,4-7.1,6.1-10.6c1.9-3.2,3.8-3.1,5.7,0.1c5.4,9.3,10.8,18.6,16.2,27.9c2,3.5,4,7,6,10.4c0.9,1.3,1,3,0.3,4.4
			c-1.6,3.9-0.5,7.5,2.8,10c2.7,2.1,6.7,2.1,9.8-0.1c2.7-1.9,3.8-5.4,2.8-9.1c-0.8-3-3.7-5.6-6.7-5.7c-2.4-0.1-3.7-1.2-4.9-3.2
			C15.7,51.5,11,43.5,6.3,35.3C2.7,29.2-0.8,23-4.4,16.8c-0.9-1.4-0.9-3.2,0.1-4.6c1.8-3,3.5-6.1,5.2-9.1C3.1-0.7,5-0.7,7.1,3
			c5.5,9.5,11,19.1,16.5,28.6C30.1,43,36.7,54.2,43.3,65.6c3.6,6.2,7.1,12.4,10.7,18.6c1.6,2.9,0.6,4.7-2.6,4.7H6.6
			c-1.5,0.1-2.9-0.6-3.9-1.8c-3.5-4.2-8.4-4.8-12.2-1.7c-2.5,2.1-3.6,5.5-2.7,8.6c1.3,3.8,3.9,5.6,7.6,5.8c2.6,0.3,5.2-0.8,6.8-2.9
			C3.9,94.7,6,94,8.6,94c15.6,0.1,31.2,0.1,46.8,0c2.8-0.2,5.5,1.4,6.6,4c1.4,2.8,3.1,5.4,4.8,8.1c0.7,1.1,1.2,2.1,0.5,3.3
			c-0.6,1.3-1.9,2.1-3.3,2C48.2,111.3,32.5,111.3,16.8,111.3L16.8,111.3z"/>
	</g>
</g>
</svg>
