<svg width="538" height="111" viewBox="0 0 538 111" fill="none" xmlns="http://www.w3.org/2000/svg">
<g clip-path="url(#clip0_201_4)">
<path d="M158.499 39.8564H165.876V49.2226H175.246V56.3968H165.876V65.763H158.499V56.3968H149.129V49.2226H158.499V39.8564Z" fill="black"/>
<path d="M438.514 0.597839H527.334C533.315 0.597839 538.1 5.3806 538.1 11.3591V100.139C538.1 106.118 533.315 110.9 527.334 110.9H438.514C432.533 110.9 427.748 106.118 427.748 100.139V11.3591C427.649 5.48024 432.533 0.597839 438.514 0.597839Z" fill="#3178C6"/>
<path fill-rule="evenodd" clip-rule="evenodd" d="M496.033 88.2819V99.0431C497.827 99.9398 499.92 100.637 502.313 101.036C504.705 101.534 507.297 101.733 509.889 101.733C512.481 101.733 514.873 101.534 517.266 101.036C519.658 100.538 521.552 99.7406 523.346 98.6445C525.141 97.5485 526.536 96.0539 527.433 94.1607C528.331 92.2675 528.929 90.0754 528.929 87.2854C528.929 85.2926 528.63 83.5987 528.031 82.1041C527.433 80.6095 526.636 79.3142 525.44 78.2181C524.343 77.1221 523.047 76.026 521.552 75.2289C520.057 74.3321 518.362 73.4354 516.368 72.6382C514.973 72.0404 513.777 71.5422 512.481 70.9443C511.384 70.3465 510.387 69.8483 509.689 69.2504C508.892 68.6526 508.294 68.0547 507.895 67.4569C507.496 66.8591 507.297 66.0619 507.297 65.2648C507.297 64.5673 507.496 63.8698 507.895 63.272C508.294 62.6741 508.792 62.1759 509.49 61.7774C510.188 61.3788 511.085 60.9802 512.082 60.781C513.079 60.5817 514.175 60.482 515.571 60.482C516.468 60.482 517.465 60.5817 518.362 60.6813C519.359 60.781 520.356 60.9802 521.353 61.2792C522.349 61.5781 523.346 61.877 524.343 62.3752C525.34 62.7738 526.137 63.272 526.935 63.8698V53.6068C525.34 53.009 523.446 52.5108 521.552 52.2118C519.658 51.9129 517.465 51.7136 514.873 51.7136C512.281 51.7136 509.889 52.0126 507.496 52.5108C505.104 53.009 503.21 53.9057 501.416 55.1014C499.621 56.2971 498.425 57.6921 497.328 59.5853C496.332 61.3788 495.833 63.4713 495.833 66.0619C495.833 69.2504 496.73 72.14 498.624 74.2325C500.518 76.6239 503.409 78.3178 506.998 80.0117C508.493 80.6095 509.789 81.2074 511.085 81.8052C512.381 82.403 513.477 83.0009 514.275 83.5987C515.172 84.1966 515.97 84.8941 516.468 85.6912C516.966 86.3887 517.266 87.2854 517.266 88.2819C517.266 88.9793 517.066 89.5772 516.767 90.175C516.468 90.7729 515.97 91.2711 515.272 91.7693C514.574 92.1679 513.777 92.5664 512.68 92.7657C511.683 92.965 510.487 93.1643 508.992 93.1643C506.599 93.1643 504.207 92.7657 502.113 91.9686C499.721 91.1714 497.628 89.8761 495.634 88.2819H496.033ZM477.89 61.7774H491.646V52.9093H453.068V61.7774H466.825V101.235H477.79V61.7774H477.89Z" fill="white"/>
<path d="M324.375 0.498199H213.824V111H324.375V0.498199Z" fill="#F7DF1E"/>
<path d="M288.09 86.8869C290.283 90.474 293.174 93.1643 298.357 93.1643C302.644 93.1643 305.435 90.9722 305.435 88.0826C305.435 84.4955 302.644 83.2998 297.859 81.2073L295.267 80.1113C287.791 76.9228 282.806 72.9371 282.806 64.4677C282.806 56.6957 288.787 50.7172 298.058 50.7172C304.637 50.7172 309.422 53.009 312.812 58.9874L304.737 64.1687C302.943 60.9802 301.049 59.6849 298.058 59.6849C294.968 59.6849 293.074 61.5781 293.074 64.1687C293.074 67.2576 294.968 68.5529 299.454 70.4461L302.046 71.5422C310.918 75.3285 315.802 79.2145 315.802 87.8833C315.802 97.2495 308.425 102.331 298.557 102.331C288.887 102.331 282.707 97.7477 279.616 91.6696L288.09 86.8869ZM251.406 87.7836C253.001 90.6732 254.496 93.1643 258.084 93.1643C261.474 93.1643 263.667 91.8689 263.667 86.6876V51.2154H274.034V86.6876C274.034 97.4488 267.754 102.331 258.483 102.331C250.209 102.331 245.325 98.0467 242.932 92.8653L251.406 87.7836Z" fill="black"/>
<path d="M372.324 39.8564H379.7V49.2226H389.071V56.3968H379.7V65.763H372.324V56.3968H362.953V49.2226H372.324V39.8564Z" fill="black"/>
<g clip-path="url(#clip1_201_4)">
<path d="M110.43 3H2.03894V111H110.43V3Z" fill="#57EB9F"/>
<path d="M78.1764 20.8494H19.953V78.8627H78.1764V20.8494Z" fill="#57EB9F"/>
<path d="M78.1764 20.8494V78.8627H19.953L34.2885 93.1509H92.5163V35.1332L78.1764 20.8494Z" fill="#1A1C1C"/>
<path d="M54.1088 55.3825H43.8836L48.9411 40.4184L54.1088 55.3825ZM44.5268 29.7208L30.6671 69.9958H38.9142L41.5443 62.4015H56.4745L59.2059 69.9958H67.453L53.3158 29.7208H44.5312H44.5268Z" fill="#040607"/>
</g>
</g>
<defs>
<clipPath id="clip0_201_4">
<rect width="538" height="111" fill="white"/>
</clipPath>
<clipPath id="clip1_201_4">
<rect width="109" height="108" fill="white" transform="translate(2 3)"/>
</clipPath>
</defs>
</svg>
